<mxfile host="app.diagrams.net" modified="2020-10-16T18:44:47.076Z" agent="5.0 (Windows NT 10.0; Win64; x64) AppleWebKit/537.36 (KHTML, like Gecko) Chrome/86.0.4240.75 Safari/537.36" etag="2FubR4HRG_wQ3lR5VOPi" version="13.8.0" type="github">
  <diagram name="Page-1" id="e7e014a7-5840-1c2e-5031-d8a46d1fe8dd">
    <mxGraphModel dx="1422" dy="762" grid="1" gridSize="10" guides="1" tooltips="1" connect="1" arrows="1" fold="1" page="1" pageScale="1" pageWidth="1169" pageHeight="826" background="#ffffff" math="0" shadow="0">
      <root>
        <mxCell id="0" />
        <mxCell id="1" parent="0" />
        <mxCell id="2" value="" style="swimlane;whiteSpace=wrap" parent="1" vertex="1">
          <mxGeometry x="80" y="60" width="900" height="570" as="geometry" />
        </mxCell>
        <mxCell id="5" value="" style="ellipse;shape=startState;fillColor=#000000;strokeColor=#ff0000;" parent="2" vertex="1">
          <mxGeometry x="310" y="40" width="30" height="30" as="geometry" />
        </mxCell>
        <mxCell id="6" value="" style="edgeStyle=elbowEdgeStyle;elbow=horizontal;verticalAlign=bottom;endArrow=open;endSize=8;strokeColor=#FF0000;endFill=1;rounded=0" parent="2" source="5" target="7" edge="1">
          <mxGeometry x="310" y="40" as="geometry">
            <mxPoint x="325" y="110" as="targetPoint" />
          </mxGeometry>
        </mxCell>
        <mxCell id="7" value="Player enters a map" style="" parent="2" vertex="1">
          <mxGeometry x="270" y="110" width="110" height="50" as="geometry" />
        </mxCell>
        <mxCell id="8" value="Player enters a &#xa;movement key" style="" parent="2" vertex="1">
          <mxGeometry x="270" y="220" width="110" height="50" as="geometry" />
        </mxCell>
        <mxCell id="9" value="" style="endArrow=open;strokeColor=#FF0000;endFill=1;rounded=0" parent="2" source="7" target="8" edge="1">
          <mxGeometry relative="1" as="geometry" />
        </mxCell>
        <mxCell id="10" value="Player moves around&#xa;the map" style="" parent="2" vertex="1">
          <mxGeometry x="270" y="343" width="110" height="50" as="geometry" />
        </mxCell>
        <mxCell id="11" value="" style="endArrow=open;strokeColor=#FF0000;endFill=1;rounded=0" parent="2" source="8" target="10" edge="1">
          <mxGeometry relative="1" as="geometry" />
        </mxCell>
        <mxCell id="arBrLoTaMnmxEmwNuJEZ-41" value="Player discovers treasure chest" style="rounded=0;whiteSpace=wrap;html=1;" vertex="1" parent="2">
          <mxGeometry x="190" y="470" width="120" height="60" as="geometry" />
        </mxCell>
        <mxCell id="20" value="" style="endArrow=open;strokeColor=#FF0000;endFill=1;rounded=0;entryX=0.7;entryY=-0.05;entryDx=0;entryDy=0;entryPerimeter=0;" parent="2" source="10" target="arBrLoTaMnmxEmwNuJEZ-41" edge="1">
          <mxGeometry relative="1" as="geometry">
            <mxPoint x="510" y="368" as="targetPoint" />
          </mxGeometry>
        </mxCell>
        <mxCell id="arBrLoTaMnmxEmwNuJEZ-42" value="Player moves to a new area" style="rounded=0;whiteSpace=wrap;html=1;" vertex="1" parent="2">
          <mxGeometry x="525" y="160" width="120" height="60" as="geometry" />
        </mxCell>
        <mxCell id="arBrLoTaMnmxEmwNuJEZ-43" value="" style="endArrow=open;strokeColor=#FF0000;endFill=1;rounded=0;entryX=0;entryY=0.5;entryDx=0;entryDy=0;" edge="1" parent="2" target="arBrLoTaMnmxEmwNuJEZ-42">
          <mxGeometry relative="1" as="geometry">
            <mxPoint x="380" y="340" as="sourcePoint" />
            <mxPoint x="478.32" y="427" as="targetPoint" />
          </mxGeometry>
        </mxCell>
        <mxCell id="arBrLoTaMnmxEmwNuJEZ-44" value="Player enters combat" style="rounded=0;whiteSpace=wrap;html=1;" vertex="1" parent="2">
          <mxGeometry x="435" y="470" width="120" height="60" as="geometry" />
        </mxCell>
        <mxCell id="arBrLoTaMnmxEmwNuJEZ-45" value="" style="endArrow=open;strokeColor=#FF0000;endFill=1;rounded=0;entryX=0;entryY=0.5;entryDx=0;entryDy=0;exitX=1;exitY=0.5;exitDx=0;exitDy=0;" edge="1" parent="2" source="10" target="arBrLoTaMnmxEmwNuJEZ-44">
          <mxGeometry relative="1" as="geometry">
            <mxPoint x="390" y="350" as="sourcePoint" />
            <mxPoint x="470" y="250" as="targetPoint" />
            <Array as="points" />
          </mxGeometry>
        </mxCell>
        <mxCell id="arBrLoTaMnmxEmwNuJEZ-46" value="" style="endArrow=open;strokeColor=#FF0000;endFill=1;rounded=0;entryX=1;entryY=0.5;entryDx=0;entryDy=0;exitX=0;exitY=0.25;exitDx=0;exitDy=0;" edge="1" parent="2" source="arBrLoTaMnmxEmwNuJEZ-42" target="7">
          <mxGeometry relative="1" as="geometry">
            <mxPoint x="490" y="210" as="sourcePoint" />
            <mxPoint x="570" y="110" as="targetPoint" />
          </mxGeometry>
        </mxCell>
        <mxCell id="arBrLoTaMnmxEmwNuJEZ-47" value="Player completes combat" style="rounded=0;whiteSpace=wrap;html=1;" vertex="1" parent="2">
          <mxGeometry x="570" y="390" width="120" height="60" as="geometry" />
        </mxCell>
        <mxCell id="arBrLoTaMnmxEmwNuJEZ-48" value="Player interacts with treasure chest" style="rounded=0;whiteSpace=wrap;html=1;" vertex="1" parent="2">
          <mxGeometry x="40" y="380" width="120" height="60" as="geometry" />
        </mxCell>
        <mxCell id="arBrLoTaMnmxEmwNuJEZ-49" value="" style="endArrow=open;strokeColor=#FF0000;endFill=1;rounded=0;entryX=1;entryY=0.5;entryDx=0;entryDy=0;" edge="1" parent="2" target="arBrLoTaMnmxEmwNuJEZ-48">
          <mxGeometry relative="1" as="geometry">
            <mxPoint x="190.001212121212" y="470" as="sourcePoint" />
            <mxPoint x="151.88" y="544" as="targetPoint" />
          </mxGeometry>
        </mxCell>
        <mxCell id="arBrLoTaMnmxEmwNuJEZ-50" value="" style="endArrow=open;strokeColor=#FF0000;endFill=1;rounded=0;entryX=0;entryY=0.5;entryDx=0;entryDy=0;" edge="1" parent="2" target="10">
          <mxGeometry relative="1" as="geometry">
            <mxPoint x="160.00121212121212" y="393" as="sourcePoint" />
            <mxPoint x="130" y="333" as="targetPoint" />
          </mxGeometry>
        </mxCell>
        <mxCell id="arBrLoTaMnmxEmwNuJEZ-51" value="" style="endArrow=open;strokeColor=#FF0000;endFill=1;rounded=0;entryX=0;entryY=0.5;entryDx=0;entryDy=0;exitX=0.5;exitY=0;exitDx=0;exitDy=0;" edge="1" parent="2" source="arBrLoTaMnmxEmwNuJEZ-44" target="arBrLoTaMnmxEmwNuJEZ-47">
          <mxGeometry relative="1" as="geometry">
            <mxPoint x="500" y="420" as="sourcePoint" />
            <mxPoint x="555" y="552" as="targetPoint" />
            <Array as="points" />
          </mxGeometry>
        </mxCell>
        <mxCell id="arBrLoTaMnmxEmwNuJEZ-52" value="" style="endArrow=open;strokeColor=#FF0000;endFill=1;rounded=0;entryX=1;entryY=0.25;entryDx=0;entryDy=0;exitX=0.5;exitY=0;exitDx=0;exitDy=0;" edge="1" parent="2" target="10">
          <mxGeometry relative="1" as="geometry">
            <mxPoint x="570" y="393" as="sourcePoint" />
            <mxPoint x="645" y="343" as="targetPoint" />
            <Array as="points" />
          </mxGeometry>
        </mxCell>
      </root>
    </mxGraphModel>
  </diagram>
</mxfile>
